<svg width="213" height="19" viewBox="0 0 213 19" fill="none" xmlns="http://www.w3.org/2000/svg">
<path d="M21.456 1.008V1.488C20.944 1.504 20.56 1.568 20.304 1.68C20.048 1.776 19.872 1.968 19.776 2.256C19.696 2.528 19.656 2.96 19.656 3.552V15.456C19.656 16.032 19.696 16.464 19.776 16.752C19.872 17.04 20.048 17.232 20.304 17.328C20.56 17.424 20.944 17.488 21.456 17.52V18C21.008 17.968 20.44 17.952 19.752 17.952C19.08 17.936 18.392 17.928 17.688 17.928C16.92 17.928 16.2 17.936 15.528 17.952C14.856 17.952 14.312 17.968 13.896 18V17.52C14.44 17.488 14.848 17.424 15.12 17.328C15.408 17.232 15.6 17.04 15.696 16.752C15.792 16.464 15.84 16.032 15.84 15.456V2.472H16.008L10.056 18.024H9.672L3.192 2.568V14.064C3.192 14.944 3.24 15.624 3.336 16.104C3.432 16.568 3.64 16.904 3.96 17.112C4.296 17.304 4.816 17.44 5.52 17.52V18C5.216 17.968 4.816 17.952 4.32 17.952C3.824 17.936 3.36 17.928 2.928 17.928C2.56 17.928 2.184 17.936 1.8 17.952C1.416 17.952 1.096 17.968 0.84 18V17.52C1.352 17.44 1.736 17.304 1.992 17.112C2.248 16.92 2.416 16.608 2.496 16.176C2.592 15.728 2.64 15.12 2.64 14.352V3.552C2.64 2.96 2.592 2.528 2.496 2.256C2.416 1.968 2.24 1.776 1.968 1.68C1.712 1.568 1.336 1.504 0.84 1.488V1.008C1.096 1.024 1.416 1.04 1.8 1.056C2.184 1.072 2.56 1.08 2.928 1.08C3.616 1.08 4.288 1.072 4.944 1.056C5.616 1.04 6.208 1.024 6.72 1.008L11.76 13.176L11.16 13.728L15.984 1.08C16.256 1.08 16.536 1.08 16.824 1.08C17.112 1.08 17.4 1.08 17.688 1.08C18.392 1.08 19.08 1.072 19.752 1.056C20.44 1.04 21.008 1.024 21.456 1.008ZM31.5827 0.671999C33.2787 0.671999 34.7587 1.016 36.0227 1.704C37.3027 2.392 38.2947 3.384 38.9987 4.68C39.7027 5.96 40.0547 7.52 40.0547 9.36C40.0547 11.152 39.6947 12.72 38.9747 14.064C38.2547 15.408 37.2467 16.456 35.9507 17.208C34.6707 17.96 33.2067 18.336 31.5587 18.336C29.8627 18.336 28.3747 17.992 27.0947 17.304C25.8307 16.616 24.8467 15.624 24.1427 14.328C23.4387 13.032 23.0867 11.472 23.0867 9.648C23.0867 7.856 23.4467 6.288 24.1667 4.944C24.9027 3.6 25.9027 2.552 27.1667 1.8C28.4467 1.048 29.9187 0.671999 31.5827 0.671999ZM31.4867 1.104C30.5907 1.104 29.8067 1.464 29.1347 2.184C28.4787 2.904 27.9667 3.896 27.5987 5.16C27.2467 6.424 27.0707 7.888 27.0707 9.552C27.0707 11.248 27.2707 12.728 27.6707 13.992C28.0867 15.24 28.6387 16.208 29.3267 16.896C30.0307 17.568 30.8067 17.904 31.6547 17.904C32.5507 17.904 33.3267 17.544 33.9827 16.824C34.6547 16.104 35.1667 15.112 35.5187 13.848C35.8867 12.568 36.0707 11.104 36.0707 9.456C36.0707 7.744 35.8627 6.264 35.4467 5.016C35.0467 3.768 34.4947 2.808 33.7907 2.136C33.1027 1.448 32.3347 1.104 31.4867 1.104ZM57.0728 1.008V1.488C56.5608 1.552 56.1688 1.688 55.8968 1.896C55.6408 2.088 55.4728 2.4 55.3928 2.832C55.3128 3.264 55.2728 3.872 55.2728 4.656V11.016C55.2728 12.056 55.2008 13.008 55.0568 13.872C54.9128 14.736 54.6568 15.48 54.2888 16.104C53.8728 16.792 53.2648 17.336 52.4648 17.736C51.6648 18.136 50.6488 18.336 49.4168 18.336C48.6808 18.336 47.9288 18.248 47.1608 18.072C46.3928 17.912 45.7048 17.6 45.0968 17.136C44.5848 16.704 44.1928 16.216 43.9208 15.672C43.6488 15.128 43.4648 14.488 43.3688 13.752C43.2728 13 43.2248 12.112 43.2248 11.088V3.552C43.2248 2.96 43.1768 2.528 43.0808 2.256C43.0008 1.968 42.8328 1.776 42.5768 1.68C42.3208 1.568 41.9368 1.504 41.4248 1.488V1.008C41.8248 1.024 42.3608 1.04 43.0328 1.056C43.7208 1.072 44.4328 1.08 45.1688 1.08C45.9048 1.08 46.6088 1.072 47.2808 1.056C47.9688 1.04 48.5368 1.024 48.9848 1.008V1.488C48.4408 1.504 48.0248 1.568 47.7368 1.68C47.4648 1.776 47.2808 1.968 47.1848 2.256C47.0888 2.528 47.0408 2.96 47.0408 3.552V12.6C47.0408 13.4 47.0888 14.112 47.1848 14.736C47.2968 15.344 47.4728 15.856 47.7128 16.272C47.9688 16.672 48.3128 16.976 48.7448 17.184C49.1768 17.392 49.7128 17.496 50.3528 17.496C51.4728 17.496 52.3448 17.232 52.9688 16.704C53.6088 16.176 54.0568 15.448 54.3128 14.52C54.5848 13.576 54.7208 12.496 54.7208 11.28V4.944C54.7208 4.064 54.6648 3.392 54.5528 2.928C54.4408 2.448 54.2168 2.104 53.8808 1.896C53.5608 1.688 53.0648 1.552 52.3928 1.488V1.008C52.6968 1.024 53.0968 1.04 53.5928 1.056C54.0888 1.072 54.5528 1.08 54.9848 1.08C55.3688 1.08 55.7448 1.072 56.1128 1.056C56.4968 1.04 56.8168 1.024 57.0728 1.008ZM68.5076 18V17.52C69.0196 17.488 69.4036 17.424 69.6596 17.328C69.9156 17.232 70.0836 17.04 70.1636 16.752C70.2596 16.464 70.3076 16.032 70.3076 15.456V3.552C70.3076 2.96 70.2596 2.528 70.1636 2.256C70.0836 1.968 69.9076 1.776 69.6356 1.68C69.3796 1.568 69.0036 1.504 68.5076 1.488V1.008C68.9396 1.024 69.4996 1.04 70.1876 1.056C70.8916 1.072 71.5876 1.08 72.2756 1.08C73.0116 1.08 73.6996 1.072 74.3396 1.056C74.9956 1.04 75.5236 1.024 75.9236 1.008V1.488C75.4116 1.504 75.0196 1.568 74.7476 1.68C74.4916 1.776 74.3236 1.968 74.2436 2.256C74.1636 2.528 74.1236 2.96 74.1236 3.552V15.456C74.1236 16.032 74.1636 16.464 74.2436 16.752C74.3396 17.04 74.5156 17.232 74.7716 17.328C75.0276 17.424 75.4116 17.488 75.9236 17.52V18C75.5236 17.968 74.9956 17.952 74.3396 17.952C73.6996 17.936 73.0116 17.928 72.2756 17.928C71.5876 17.928 70.8916 17.936 70.1876 17.952C69.4996 17.952 68.9396 17.968 68.5076 18ZM58.3316 18V17.52C58.8436 17.488 59.2276 17.424 59.4836 17.328C59.7396 17.232 59.9076 17.04 59.9876 16.752C60.0836 16.464 60.1316 16.032 60.1316 15.456V3.552C60.1316 2.96 60.0836 2.528 59.9876 2.256C59.9076 1.968 59.7316 1.776 59.4596 1.68C59.2036 1.568 58.8276 1.504 58.3316 1.488V1.008C58.7476 1.024 59.2836 1.04 59.9396 1.056C60.6116 1.072 61.3396 1.08 62.1236 1.08C62.7956 1.08 63.4596 1.072 64.1156 1.056C64.7716 1.04 65.3156 1.024 65.7476 1.008V1.488C65.2356 1.504 64.8436 1.568 64.5716 1.68C64.3156 1.776 64.1476 1.968 64.0676 2.256C63.9876 2.528 63.9476 2.96 63.9476 3.552V15.456C63.9476 16.032 63.9876 16.464 64.0676 16.752C64.1636 17.04 64.3396 17.232 64.5956 17.328C64.8516 17.424 65.2356 17.488 65.7476 17.52V18C65.3156 17.968 64.7716 17.952 64.1156 17.952C63.4596 17.936 62.7956 17.928 62.1236 17.928C61.3396 17.928 60.6116 17.936 59.9396 17.952C59.2836 17.952 58.7476 17.968 58.3316 18ZM62.3876 9.696V9.216H71.8676V9.696H62.3876ZM85.5429 0.959999L91.3749 15.984C91.5989 16.56 91.8469 16.96 92.1189 17.184C92.4069 17.392 92.6629 17.504 92.8869 17.52V18C92.4069 17.968 91.8389 17.952 91.1829 17.952C90.5429 17.936 89.8949 17.928 89.2389 17.928C88.5029 17.928 87.8069 17.936 87.1509 17.952C86.4949 17.952 85.9749 17.968 85.5909 18V17.52C86.4069 17.488 86.9189 17.352 87.1269 17.112C87.3509 16.856 87.3029 16.32 86.9829 15.504L82.9029 4.344L83.3349 3.72L79.6869 13.224C79.3349 14.104 79.1189 14.824 79.0389 15.384C78.9749 15.944 79.0149 16.376 79.1589 16.68C79.3189 16.984 79.5669 17.2 79.9029 17.328C80.2549 17.44 80.6709 17.504 81.1509 17.52V18C80.6229 17.968 80.1189 17.952 79.6389 17.952C79.1589 17.936 78.6709 17.928 78.1749 17.928C77.8229 17.928 77.4869 17.936 77.1669 17.952C76.8629 17.952 76.5909 17.968 76.3509 18V17.52C76.6869 17.456 77.0309 17.24 77.3829 16.872C77.7349 16.504 78.0789 15.88 78.4149 15L83.8869 0.959999C84.1429 0.975999 84.4149 0.983999 84.7029 0.983999C85.0069 0.983999 85.2869 0.975999 85.5429 0.959999ZM87.2229 11.088V11.568H80.0709L80.3109 11.088H87.2229ZM113.706 1.008V1.488C113.194 1.504 112.81 1.568 112.554 1.68C112.298 1.776 112.122 1.968 112.026 2.256C111.946 2.528 111.906 2.96 111.906 3.552V15.456C111.906 16.032 111.946 16.464 112.026 16.752C112.122 17.04 112.298 17.232 112.554 17.328C112.81 17.424 113.194 17.488 113.706 17.52V18C113.258 17.968 112.69 17.952 112.002 17.952C111.33 17.936 110.642 17.928 109.938 17.928C109.17 17.928 108.45 17.936 107.778 17.952C107.106 17.952 106.562 17.968 106.146 18V17.52C106.69 17.488 107.098 17.424 107.37 17.328C107.658 17.232 107.85 17.04 107.946 16.752C108.042 16.464 108.09 16.032 108.09 15.456V2.472H108.258L102.306 18.024H101.922L95.442 2.568V14.064C95.442 14.944 95.49 15.624 95.586 16.104C95.682 16.568 95.89 16.904 96.21 17.112C96.546 17.304 97.066 17.44 97.77 17.52V18C97.466 17.968 97.066 17.952 96.57 17.952C96.074 17.936 95.61 17.928 95.178 17.928C94.81 17.928 94.434 17.936 94.05 17.952C93.666 17.952 93.346 17.968 93.09 18V17.52C93.602 17.44 93.986 17.304 94.242 17.112C94.498 16.92 94.666 16.608 94.746 16.176C94.842 15.728 94.89 15.12 94.89 14.352V3.552C94.89 2.96 94.842 2.528 94.746 2.256C94.666 1.968 94.49 1.776 94.218 1.68C93.962 1.568 93.586 1.504 93.09 1.488V1.008C93.346 1.024 93.666 1.04 94.05 1.056C94.434 1.072 94.81 1.08 95.178 1.08C95.866 1.08 96.538 1.072 97.194 1.056C97.866 1.04 98.458 1.024 98.97 1.008L104.01 13.176L103.41 13.728L108.234 1.08C108.506 1.08 108.786 1.08 109.074 1.08C109.362 1.08 109.65 1.08 109.938 1.08C110.642 1.08 111.33 1.072 112.002 1.056C112.69 1.04 113.258 1.024 113.706 1.008ZM128.148 1.008C128.084 1.712 128.036 2.392 128.004 3.048C127.988 3.704 127.98 4.208 127.98 4.56C127.98 4.88 127.988 5.184 128.004 5.472C128.02 5.76 128.036 6 128.052 6.192H127.5C127.34 5.024 127.092 4.104 126.756 3.432C126.42 2.744 125.98 2.264 125.436 1.992C124.908 1.704 124.284 1.56 123.564 1.56H122.58C122.116 1.56 121.764 1.6 121.524 1.68C121.284 1.76 121.124 1.92 121.044 2.16C120.964 2.4 120.924 2.768 120.924 3.264V15.744C120.924 16.24 120.964 16.608 121.044 16.848C121.124 17.088 121.284 17.248 121.524 17.328C121.764 17.408 122.116 17.448 122.58 17.448H123.756C124.476 17.448 125.108 17.296 125.652 16.992C126.212 16.672 126.684 16.136 127.068 15.384C127.468 14.632 127.772 13.616 127.98 12.336H128.532C128.484 12.848 128.46 13.52 128.46 14.352C128.46 14.72 128.468 15.24 128.484 15.912C128.5 16.584 128.548 17.28 128.628 18C127.812 17.968 126.892 17.952 125.868 17.952C124.844 17.936 123.932 17.928 123.132 17.928C122.732 17.928 122.22 17.928 121.596 17.928C120.972 17.928 120.3 17.936 119.58 17.952C118.86 17.952 118.132 17.96 117.396 17.976C116.66 17.976 115.964 17.984 115.308 18V17.52C115.82 17.488 116.204 17.424 116.46 17.328C116.716 17.232 116.884 17.04 116.964 16.752C117.06 16.464 117.108 16.032 117.108 15.456V3.552C117.108 2.96 117.06 2.528 116.964 2.256C116.884 1.968 116.708 1.776 116.436 1.68C116.18 1.568 115.804 1.504 115.308 1.488V1.008C115.964 1.024 116.66 1.04 117.396 1.056C118.132 1.056 118.86 1.064 119.58 1.08C120.3 1.08 120.972 1.08 121.596 1.08C122.22 1.08 122.732 1.08 123.132 1.08C123.868 1.08 124.7 1.08 125.628 1.08C126.572 1.064 127.412 1.04 128.148 1.008ZM124.404 9.216C124.404 9.216 124.404 9.296 124.404 9.456C124.404 9.616 124.404 9.696 124.404 9.696H120.204C120.204 9.696 120.204 9.616 120.204 9.456C120.204 9.296 120.204 9.216 120.204 9.216H124.404ZM125.1 6.048C125.036 6.96 125.004 7.656 125.004 8.136C125.02 8.616 125.028 9.056 125.028 9.456C125.028 9.856 125.036 10.296 125.052 10.776C125.068 11.256 125.108 11.952 125.172 12.864H124.62C124.54 12.304 124.388 11.784 124.164 11.304C123.956 10.824 123.652 10.44 123.252 10.152C122.852 9.848 122.332 9.696 121.692 9.696V9.216C122.172 9.216 122.58 9.12 122.916 8.928C123.252 8.72 123.524 8.456 123.732 8.136C123.956 7.8 124.132 7.448 124.26 7.08C124.388 6.712 124.484 6.368 124.548 6.048H125.1ZM137.935 1.008C141.087 1.008 143.431 1.728 144.967 3.168C146.503 4.592 147.271 6.64 147.271 9.312C147.271 11.056 146.895 12.584 146.143 13.896C145.391 15.192 144.295 16.2 142.855 16.92C141.431 17.64 139.719 18 137.719 18C137.463 18 137.127 17.992 136.711 17.976C136.295 17.96 135.863 17.952 135.415 17.952C134.967 17.936 134.567 17.928 134.215 17.928C133.511 17.928 132.815 17.936 132.127 17.952C131.455 17.952 130.919 17.968 130.519 18V17.52C131.031 17.488 131.415 17.424 131.671 17.328C131.927 17.232 132.095 17.04 132.175 16.752C132.271 16.464 132.319 16.032 132.319 15.456V3.552C132.319 2.96 132.271 2.528 132.175 2.256C132.095 1.968 131.919 1.776 131.647 1.68C131.391 1.568 131.015 1.504 130.519 1.488V1.008C130.919 1.024 131.455 1.048 132.127 1.08C132.815 1.096 133.495 1.096 134.167 1.08C134.743 1.064 135.391 1.048 136.111 1.032C136.847 1.016 137.455 1.008 137.935 1.008ZM137.911 1.44C137.175 1.44 136.695 1.576 136.471 1.848C136.247 2.12 136.135 2.672 136.135 3.504V15.504C136.135 16.336 136.247 16.888 136.471 17.16C136.711 17.432 137.199 17.568 137.935 17.568C139.279 17.568 140.335 17.256 141.103 16.632C141.887 15.992 142.447 15.064 142.783 13.848C143.119 12.632 143.287 11.152 143.287 9.408C143.287 7.616 143.103 6.136 142.735 4.968C142.383 3.784 141.815 2.904 141.031 2.328C140.247 1.736 139.207 1.44 137.911 1.44ZM160.754 0.696C161.698 0.696 162.426 0.8 162.938 1.008C163.45 1.2 163.89 1.408 164.258 1.632C164.45 1.744 164.602 1.832 164.714 1.896C164.842 1.944 164.962 1.968 165.074 1.968C165.234 1.968 165.346 1.88 165.41 1.704C165.49 1.528 165.554 1.264 165.602 0.912H166.154C166.138 1.216 166.114 1.584 166.082 2.016C166.066 2.432 166.049 2.984 166.034 3.672C166.034 4.36 166.034 5.264 166.034 6.384H165.482C165.418 5.552 165.226 4.744 164.906 3.96C164.586 3.176 164.13 2.536 163.538 2.04C162.962 1.528 162.25 1.272 161.402 1.272C160.634 1.272 160.002 1.488 159.506 1.92C159.01 2.352 158.762 2.952 158.762 3.72C158.762 4.36 158.922 4.912 159.242 5.376C159.562 5.824 160.026 6.264 160.634 6.696C161.258 7.128 162.01 7.648 162.89 8.256C163.658 8.752 164.346 9.248 164.954 9.744C165.562 10.24 166.05 10.8 166.418 11.424C166.786 12.048 166.97 12.792 166.97 13.656C166.97 14.712 166.69 15.584 166.13 16.272C165.586 16.96 164.866 17.48 163.97 17.832C163.074 18.168 162.09 18.336 161.018 18.336C160.026 18.336 159.234 18.24 158.642 18.048C158.05 17.856 157.554 17.656 157.154 17.448C156.802 17.224 156.53 17.112 156.338 17.112C156.178 17.112 156.058 17.2 155.978 17.376C155.914 17.552 155.858 17.816 155.81 18.168H155.258C155.29 17.784 155.306 17.336 155.306 16.824C155.322 16.312 155.33 15.648 155.33 14.832C155.346 14 155.354 12.952 155.354 11.688H155.906C155.97 12.744 156.146 13.736 156.434 14.664C156.738 15.576 157.194 16.312 157.802 16.872C158.426 17.432 159.25 17.712 160.273 17.712C160.834 17.712 161.33 17.616 161.762 17.424C162.21 17.216 162.57 16.912 162.842 16.512C163.114 16.112 163.25 15.616 163.25 15.024C163.25 14.352 163.09 13.768 162.77 13.272C162.466 12.776 162.042 12.312 161.498 11.88C160.97 11.448 160.354 11.008 159.65 10.56C158.898 10.064 158.194 9.568 157.538 9.072C156.882 8.576 156.354 8.008 155.954 7.368C155.57 6.728 155.378 5.968 155.378 5.088C155.378 4.08 155.626 3.256 156.122 2.616C156.634 1.96 157.298 1.48 158.114 1.176C158.946 0.855999 159.826 0.696 160.754 0.696ZM181.609 1.008C181.545 1.712 181.497 2.392 181.465 3.048C181.449 3.704 181.441 4.208 181.441 4.56C181.441 4.88 181.449 5.184 181.465 5.472C181.481 5.76 181.497 6 181.513 6.192H180.961C180.801 5.024 180.553 4.104 180.217 3.432C179.881 2.744 179.441 2.264 178.897 1.992C178.369 1.704 177.745 1.56 177.025 1.56H176.041C175.577 1.56 175.225 1.6 174.985 1.68C174.745 1.76 174.585 1.92 174.505 2.16C174.425 2.4 174.385 2.768 174.385 3.264V15.744C174.385 16.24 174.425 16.608 174.505 16.848C174.585 17.088 174.745 17.248 174.985 17.328C175.225 17.408 175.577 17.448 176.041 17.448H177.217C177.937 17.448 178.569 17.296 179.113 16.992C179.673 16.672 180.145 16.136 180.529 15.384C180.929 14.632 181.233 13.616 181.441 12.336H181.993C181.945 12.848 181.921 13.52 181.921 14.352C181.921 14.72 181.929 15.24 181.945 15.912C181.961 16.584 182.009 17.28 182.089 18C181.273 17.968 180.353 17.952 179.329 17.952C178.305 17.936 177.393 17.928 176.593 17.928C176.193 17.928 175.681 17.928 175.057 17.928C174.433 17.928 173.761 17.936 173.041 17.952C172.321 17.952 171.593 17.96 170.857 17.976C170.121 17.976 169.425 17.984 168.769 18V17.52C169.281 17.488 169.665 17.424 169.921 17.328C170.177 17.232 170.345 17.04 170.425 16.752C170.521 16.464 170.569 16.032 170.569 15.456V3.552C170.569 2.96 170.521 2.528 170.425 2.256C170.345 1.968 170.169 1.776 169.897 1.68C169.641 1.568 169.265 1.504 168.769 1.488V1.008C169.425 1.024 170.121 1.04 170.857 1.056C171.593 1.056 172.321 1.064 173.041 1.08C173.761 1.08 174.433 1.08 175.057 1.08C175.681 1.08 176.193 1.08 176.593 1.08C177.329 1.08 178.161 1.08 179.089 1.08C180.033 1.064 180.873 1.04 181.609 1.008ZM177.865 9.216C177.865 9.216 177.865 9.296 177.865 9.456C177.865 9.616 177.865 9.696 177.865 9.696H173.665C173.665 9.696 173.665 9.616 173.665 9.456C173.665 9.296 173.665 9.216 173.665 9.216H177.865ZM178.561 6.048C178.497 6.96 178.465 7.656 178.465 8.136C178.481 8.616 178.489 9.056 178.489 9.456C178.489 9.856 178.497 10.296 178.513 10.776C178.529 11.256 178.569 11.952 178.633 12.864H178.081C178.001 12.304 177.849 11.784 177.625 11.304C177.417 10.824 177.113 10.44 176.713 10.152C176.313 9.848 175.793 9.696 175.153 9.696V9.216C175.633 9.216 176.041 9.12 176.377 8.928C176.713 8.72 176.985 8.456 177.193 8.136C177.417 7.8 177.593 7.448 177.721 7.08C177.849 6.712 177.945 6.368 178.009 6.048H178.561ZM197.761 0.983999V1.464C197.409 1.608 197.049 1.896 196.681 2.328C196.313 2.744 195.905 3.384 195.457 4.248L190.921 13.224H189.793L184.177 2.832C183.889 2.288 183.625 1.928 183.385 1.752C183.161 1.576 182.961 1.488 182.785 1.488V0.983999C183.217 1.032 183.657 1.064 184.105 1.08C184.569 1.096 185.073 1.104 185.617 1.104C186.321 1.104 187.081 1.096 187.897 1.08C188.713 1.048 189.457 1.016 190.129 0.983999V1.488C189.729 1.488 189.369 1.52 189.049 1.584C188.729 1.648 188.505 1.768 188.377 1.944C188.249 2.104 188.281 2.368 188.473 2.736L192.265 10.032L191.521 10.992L193.993 6.024C194.585 4.872 194.897 3.968 194.929 3.312C194.977 2.656 194.817 2.192 194.449 1.92C194.097 1.632 193.593 1.48 192.937 1.464V0.983999C193.481 1 193.993 1.016 194.473 1.032C194.953 1.048 195.441 1.056 195.937 1.056C196.289 1.056 196.617 1.048 196.921 1.032C197.241 1.016 197.521 1 197.761 0.983999ZM192.625 9.432V15.456C192.625 16.032 192.665 16.464 192.745 16.752C192.841 17.04 193.017 17.232 193.273 17.328C193.529 17.424 193.913 17.488 194.425 17.52V18C193.993 17.968 193.433 17.952 192.745 17.952C192.073 17.936 191.401 17.928 190.729 17.928C189.977 17.928 189.265 17.936 188.593 17.952C187.921 17.952 187.393 17.968 187.009 18V17.52C187.521 17.488 187.905 17.424 188.161 17.328C188.417 17.232 188.585 17.04 188.665 16.752C188.761 16.464 188.809 16.032 188.809 15.456V10.536L190.897 12.024L192.625 9.432ZM211.562 1.008C211.498 1.712 211.45 2.392 211.418 3.048C211.402 3.704 211.394 4.208 211.394 4.56C211.394 4.88 211.402 5.184 211.418 5.472C211.434 5.76 211.45 6 211.466 6.192H210.914C210.754 5.024 210.506 4.104 210.17 3.432C209.834 2.744 209.394 2.264 208.85 1.992C208.322 1.704 207.698 1.56 206.978 1.56H205.994C205.53 1.56 205.178 1.6 204.938 1.68C204.698 1.76 204.538 1.92 204.458 2.16C204.378 2.4 204.338 2.768 204.338 3.264V15.744C204.338 16.24 204.378 16.608 204.458 16.848C204.538 17.088 204.698 17.248 204.938 17.328C205.178 17.408 205.53 17.448 205.994 17.448H207.17C207.89 17.448 208.522 17.296 209.066 16.992C209.626 16.672 210.098 16.136 210.482 15.384C210.882 14.632 211.186 13.616 211.394 12.336H211.946C211.898 12.848 211.874 13.52 211.874 14.352C211.874 14.72 211.882 15.24 211.898 15.912C211.914 16.584 211.962 17.28 212.042 18C211.226 17.968 210.306 17.952 209.282 17.952C208.258 17.936 207.346 17.928 206.546 17.928C206.146 17.928 205.634 17.928 205.01 17.928C204.386 17.928 203.714 17.936 202.994 17.952C202.274 17.952 201.546 17.96 200.81 17.976C200.074 17.976 199.378 17.984 198.722 18V17.52C199.234 17.488 199.618 17.424 199.874 17.328C200.13 17.232 200.298 17.04 200.378 16.752C200.474 16.464 200.522 16.032 200.522 15.456V3.552C200.522 2.96 200.474 2.528 200.378 2.256C200.298 1.968 200.122 1.776 199.85 1.68C199.594 1.568 199.218 1.504 198.722 1.488V1.008C199.378 1.024 200.074 1.04 200.81 1.056C201.546 1.056 202.274 1.064 202.994 1.08C203.714 1.08 204.386 1.08 205.01 1.08C205.634 1.08 206.146 1.08 206.546 1.08C207.282 1.08 208.114 1.08 209.042 1.08C209.986 1.064 210.826 1.04 211.562 1.008ZM207.818 9.216C207.818 9.216 207.818 9.296 207.818 9.456C207.818 9.616 207.818 9.696 207.818 9.696H203.618C203.618 9.696 203.618 9.616 203.618 9.456C203.618 9.296 203.618 9.216 203.618 9.216H207.818ZM208.514 6.048C208.45 6.96 208.418 7.656 208.418 8.136C208.434 8.616 208.442 9.056 208.442 9.456C208.442 9.856 208.45 10.296 208.466 10.776C208.482 11.256 208.522 11.952 208.586 12.864H208.034C207.954 12.304 207.802 11.784 207.578 11.304C207.37 10.824 207.066 10.44 206.666 10.152C206.266 9.848 205.746 9.696 205.106 9.696V9.216C205.586 9.216 205.994 9.12 206.33 8.928C206.666 8.72 206.938 8.456 207.146 8.136C207.37 7.8 207.546 7.448 207.674 7.08C207.802 6.712 207.898 6.368 207.962 6.048H208.514Z" fill="#D4D5DD"/>
</svg>
